<?xml version="1.0" encoding="utf-8"?>
<!-- Generator: Adobe Illustrator 16.0.0, SVG Export Plug-In . SVG Version: 6.00 Build 0)  -->
<!DOCTYPE svg PUBLIC "-//W3C//DTD SVG 1.1//EN" "http://www.w3.org/Graphics/SVG/1.1/DTD/svg11.dtd">
<svg version="1.1" id="Layer_1" xmlns="http://www.w3.org/2000/svg" xmlns:xlink="http://www.w3.org/1999/xlink" x="0px" y="0px"
	 width="33.428px" height="33.464px" viewBox="0 0 33.428 33.464" enable-background="new 0 0 33.428 33.464" xml:space="preserve">
<g>
	<g>
		<path fill="#F15C27" d="M31.97,24.936c-3.251-2.355-3.689-4.88-5.023-13.806c-0.77-5.16-4.012-8.01-7.73-8.768V2.313
			c0-1.1-0.775-2.139-1.906-2.291c-1.376-0.188-2.555,0.837-2.555,2.126v0.214C10.292,3.12,7.505,5.97,6.734,11.13
			c-1.333,8.926-1.988,11.45-5.239,13.806C0.108,25.94,0.002,26.778,0,28.131c0,0.035-0.007,0.336,0.029,0.336h33.333
			c0.037,0,0.066-0.301,0.065-0.336C33.427,26.778,33.356,25.94,31.97,24.936z"/>
	</g>
	<g>
		<path fill="#F15C27" d="M13.419,30.697c-0.038,0-0.07-0.196-0.069-0.16c0.038,1.749,1.521,2.927,3.346,2.927
			c1.824,0,3.309-1.178,3.346-2.927c0-0.036-0.031,0.16-0.068,0.16H13.419z"/>
	</g>
</g>
</svg>
