<?xml version="1.0" encoding="utf-8"?>
<!-- Generator: Adobe Illustrator 16.0.0, SVG Export Plug-In . SVG Version: 6.00 Build 0)  -->
<!DOCTYPE svg PUBLIC "-//W3C//DTD SVG 1.1//EN" "http://www.w3.org/Graphics/SVG/1.1/DTD/svg11.dtd">
<svg version="1.1" id="Layer_1" xmlns="http://www.w3.org/2000/svg" xmlns:xlink="http://www.w3.org/1999/xlink" x="0px" y="0px"
	 width="31.5px" height="31.5px" viewBox="0 0 31.5 31.5" enable-background="new 0 0 31.5 31.5" xml:space="preserve">
<g>
	<path fill="#FFFFFF" d="M15.75,22.557c-3.754,0-6.808-3.054-6.808-6.807c0-3.754,3.054-6.808,6.808-6.808s6.808,3.054,6.808,6.808
		C22.558,19.503,19.504,22.557,15.75,22.557z M15.75,10.442c-2.927,0-5.308,2.381-5.308,5.308c0,2.926,2.381,5.307,5.308,5.307
		s5.308-2.381,5.308-5.307C21.058,12.823,18.677,10.442,15.75,10.442z"/>
	<path fill="#FFFFFF" d="M15.75,6.043c-0.414,0-0.75-0.336-0.75-0.75V0.75C15,0.336,15.336,0,15.75,0s0.75,0.336,0.75,0.75v4.543
		C16.5,5.708,16.164,6.043,15.75,6.043z"/>
	<path fill="#FFFFFF" d="M8.356,9.106c-0.192,0-0.384-0.073-0.53-0.22L4.613,5.674c-0.293-0.293-0.293-0.768,0-1.061
		s0.768-0.293,1.061,0l3.212,3.212c0.293,0.293,0.293,0.768,0,1.061C8.74,9.033,8.548,9.106,8.356,9.106z"/>
	<path fill="#FFFFFF" d="M5.293,16.5H0.75C0.336,16.5,0,16.164,0,15.75S0.336,15,0.75,15h4.543c0.414,0,0.75,0.336,0.75,0.75
		S5.707,16.5,5.293,16.5z"/>
	<path fill="#FFFFFF" d="M5.144,27.106c-0.192,0-0.384-0.073-0.53-0.22c-0.293-0.293-0.293-0.768,0-1.061l3.212-3.212
		c0.293-0.293,0.768-0.293,1.061,0s0.293,0.768,0,1.061l-3.212,3.212C5.527,27.033,5.335,27.106,5.144,27.106z"/>
	<path fill="#FFFFFF" d="M15.75,31.5c-0.414,0-0.75-0.336-0.75-0.75v-4.544c0-0.414,0.336-0.75,0.75-0.75s0.75,0.336,0.75,0.75
		v4.544C16.5,31.165,16.164,31.5,15.75,31.5z"/>
	<path fill="#FFFFFF" d="M26.356,27.106c-0.192,0-0.384-0.073-0.53-0.22l-3.213-3.212c-0.293-0.293-0.293-0.768,0-1.061
		s0.768-0.293,1.061,0l3.213,3.212c0.293,0.293,0.293,0.768,0,1.061C26.74,27.033,26.549,27.106,26.356,27.106z"/>
	<path fill="#FFFFFF" d="M30.75,16.5h-4.544c-0.414,0-0.75-0.336-0.75-0.75S25.792,15,26.206,15h4.544c0.414,0,0.75,0.336,0.75,0.75
		S31.164,16.5,30.75,16.5z"/>
	<path fill="#FFFFFF" d="M23.144,9.106c-0.192,0-0.384-0.073-0.53-0.22c-0.293-0.293-0.293-0.768,0-1.061l3.213-3.212
		c0.293-0.293,0.768-0.293,1.061,0s0.293,0.768,0,1.061l-3.213,3.212C23.527,9.033,23.336,9.106,23.144,9.106z"/>
</g>
</svg>
