<?xml version="1.0" encoding="utf-8"?>
<!-- Generator: Adobe Illustrator 16.0.0, SVG Export Plug-In . SVG Version: 6.00 Build 0)  -->
<!DOCTYPE svg PUBLIC "-//W3C//DTD SVG 1.1//EN" "http://www.w3.org/Graphics/SVG/1.1/DTD/svg11.dtd">
<svg version="1.1" id="Layer_1" xmlns="http://www.w3.org/2000/svg" xmlns:xlink="http://www.w3.org/1999/xlink" x="0px" y="0px"
	 width="48.762px" height="66px" viewBox="0 0 48.762 66" enable-background="new 0 0 48.762 66" xml:space="preserve">
<g>
	<g>
		<ellipse fill="#F15C27" cx="4.992" cy="33.295" rx="4.992" ry="5"/>
	</g>
	<path fill="#F15C27" d="M25.808,56.759c-0.253,0-0.506-0.096-0.7-0.286c-0.395-0.387-0.4-1.021-0.014-1.414
		c5.738-5.846,8.898-13.575,8.898-21.764c0-8.293-3.225-16.091-9.081-21.956c-0.39-0.391-0.389-1.024,0.001-1.414
		c0.391-0.39,1.024-0.391,1.415,0.001c6.232,6.242,9.665,14.542,9.665,23.369c0,8.716-3.363,16.942-9.471,23.164
		C26.326,56.659,26.067,56.759,25.808,56.759z"/>
	<path fill="#F15C27" d="M34.737,66c-0.253,0-0.506-0.096-0.7-0.286c-0.395-0.387-0.4-1.021-0.014-1.414
		c8.215-8.368,12.739-19.435,12.739-31.16c0-11.875-4.616-23.038-13-31.433c-0.39-0.391-0.39-1.024,0.001-1.414
		c0.391-0.39,1.024-0.391,1.415,0.001c8.76,8.772,13.584,20.438,13.584,32.846c0,12.253-4.728,23.816-13.312,32.561
		C35.254,65.9,34.996,66,34.737,66z"/>
	<path fill="#F15C27" d="M16.81,47.747c-0.251,0-0.502-0.094-0.696-0.282c-0.396-0.385-0.406-1.018-0.021-1.414
		c3.341-3.442,5.182-7.973,5.182-12.756c0-4.892-1.902-9.491-5.355-12.949c-0.39-0.391-0.39-1.024,0.001-1.414
		s1.023-0.39,1.414,0.001c3.831,3.835,5.94,8.936,5.94,14.362c0,5.307-2.041,10.331-5.746,14.148
		C17.332,47.646,17.071,47.747,16.81,47.747z"/>
</g>
</svg>
