<?xml version="1.0" encoding="utf-8"?>
<!-- Generator: Adobe Illustrator 16.0.0, SVG Export Plug-In . SVG Version: 6.00 Build 0)  -->
<!DOCTYPE svg PUBLIC "-//W3C//DTD SVG 1.1//EN" "http://www.w3.org/Graphics/SVG/1.1/DTD/svg11.dtd">
<svg version="1.1" id="Layer_1" xmlns="http://www.w3.org/2000/svg" xmlns:xlink="http://www.w3.org/1999/xlink" x="0px" y="0px"
	 width="36px" height="25.715px" viewBox="0 0 36 25.715" enable-background="new 0 0 36 25.715" xml:space="preserve">
<g>
	<path fill="#676767" d="M18,8.171c-2.611,0-4.735,2.126-4.735,4.74s2.124,4.74,4.735,4.74s4.734-2.126,4.734-4.74
		S20.611,8.171,18,8.171z M18,16.526c-1.994,0-3.61-1.618-3.61-3.615S16.006,9.296,18,9.296s3.609,1.619,3.609,3.615
		S19.994,16.526,18,16.526z"/>
	<path fill="#676767" d="M30.728,0.165c-0.22-0.22-0.576-0.22-0.796,0c-0.22,0.22-0.22,0.576-0.001,0.795
		c3.188,3.192,4.943,7.437,4.943,11.952c0,4.458-1.721,8.666-4.844,11.847c-0.217,0.222-0.214,0.577,0.008,0.796
		c0.109,0.107,0.252,0.16,0.395,0.16c0.145,0,0.291-0.056,0.401-0.168C34.166,22.154,36,17.666,36,12.912
		C36,8.096,34.128,3.569,30.728,0.165z"/>
	<path fill="#676767" d="M6.068,0.165c-0.22-0.219-0.577-0.22-0.796,0C1.872,3.569,0,8.096,0,12.912
		c0,4.754,1.834,9.243,5.166,12.635c0.11,0.112,0.256,0.168,0.402,0.168c0.142,0,0.285-0.053,0.394-0.16
		c0.222-0.219,0.225-0.574,0.008-0.796c-3.124-3.182-4.844-7.39-4.844-11.847c0-4.515,1.755-8.76,4.943-11.952
		C6.288,0.74,6.288,0.384,6.068,0.165z"/>
	<path fill="#676767" d="M10.967,5.072c-0.218-0.22-0.575-0.22-0.795,0.001c-2.09,2.094-3.242,4.878-3.242,7.838
		c0,2.897,1.114,5.639,3.136,7.723c0.11,0.113,0.257,0.17,0.403,0.17c0.142,0,0.283-0.053,0.392-0.159
		c0.224-0.216,0.229-0.572,0.013-0.796c-1.818-1.871-2.819-4.336-2.819-6.938c0-2.661,1.035-5.162,2.913-7.044
		C11.188,5.648,11.188,5.292,10.967,5.072z"/>
	<path fill="#676767" d="M25.033,5.072c-0.221,0.22-0.221,0.576-0.002,0.795c1.879,1.882,2.914,4.383,2.914,7.044
		c0,2.602-1.002,5.067-2.819,6.938c-0.216,0.224-0.211,0.58,0.013,0.796c0.109,0.106,0.25,0.159,0.392,0.159
		c0.146,0,0.293-0.057,0.403-0.17c2.022-2.084,3.137-4.826,3.137-7.723c0-2.96-1.152-5.745-3.242-7.838
		C25.608,4.853,25.251,4.854,25.033,5.072z"/>
</g>
</svg>
