<?xml version="1.0" encoding="utf-8"?>
<!-- Generator: Adobe Illustrator 16.0.0, SVG Export Plug-In . SVG Version: 6.00 Build 0)  -->
<!DOCTYPE svg PUBLIC "-//W3C//DTD SVG 1.1//EN" "http://www.w3.org/Graphics/SVG/1.1/DTD/svg11.dtd">
<svg version="1.1" id="Layer_1" xmlns="http://www.w3.org/2000/svg" xmlns:xlink="http://www.w3.org/1999/xlink" x="0px" y="0px"
	 width="64px" height="64px" viewBox="0 0 64 64" enable-background="new 0 0 64 64" xml:space="preserve">
<g>
	<path fill="#F15A24" d="M32.095-694.417c3.549,0,6.427,2.873,6.427,6.417s-2.878,6.417-6.427,6.417s-6.427-2.873-6.427-6.417
		S28.546-694.417,32.095-694.417 M32.095-696.417c-4.646,0-8.427,3.776-8.427,8.417s3.781,8.417,8.427,8.417
		c4.647,0,8.427-3.775,8.427-8.417S36.742-696.417,32.095-696.417L32.095-696.417z"/>
	<path fill="#F15A24" d="M10.142-708.92c-0.256,0-0.513-0.098-0.708-0.293c-0.39-0.391-0.39-1.024,0.001-1.414
		c6.053-6.044,14.101-9.372,22.66-9.372c8.454,0,16.431,3.261,22.462,9.183c0.396,0.387,0.401,1.02,0.015,1.415
		c-0.39,0.394-1.021,0.399-1.414,0.013C47.501-714.942,40.021-718,32.095-718c-8.026,0-15.571,3.121-21.246,8.787
		C10.654-709.018,10.398-708.92,10.142-708.92z"/>
	<path fill="#F15A24" d="M32.095-656c-8.56,0-16.607-3.329-22.66-9.373c-0.391-0.39-0.391-1.023-0.001-1.414
		c0.391-0.392,1.024-0.391,1.415-0.001c5.674,5.667,13.22,8.788,21.246,8.788c7.925,0,15.406-3.058,21.063-8.611
		c0.393-0.387,1.024-0.381,1.414,0.013c0.387,0.395,0.381,1.027-0.015,1.415C48.524-659.262,40.548-656,32.095-656z"/>
	<path fill="#F15A24" d="M32.095-668.321c-5.264,0-10.212-2.047-13.935-5.763c-0.392-0.39-0.392-1.023-0.002-1.414
		c0.391-0.392,1.025-0.392,1.414-0.001c3.346,3.339,7.793,5.178,12.522,5.178c4.627,0,9.008-1.779,12.336-5.01
		c0.396-0.385,1.028-0.375,1.414,0.021c0.385,0.396,0.375,1.03-0.021,1.414C42.12-670.301,37.245-668.321,32.095-668.321z"/>
	<path fill="#F15A24" d="M18.867-700.208c-0.256,0-0.513-0.098-0.708-0.293c-0.39-0.391-0.39-1.024,0.001-1.414
		c3.723-3.717,8.672-5.764,13.936-5.764c5.15,0,10.025,1.98,13.729,5.576c0.396,0.384,0.406,1.018,0.021,1.414
		c-0.386,0.396-1.018,0.406-1.414,0.021c-3.328-3.231-7.709-5.01-12.336-5.01c-4.729,0-9.177,1.839-12.522,5.179
		C19.378-700.306,19.123-700.208,18.867-700.208z"/>
</g>
<g>
	<path fill="#F15A24" d="M32-746c-5.69,0-11.278-1.513-16.159-4.374c-0.477-0.279-0.637-0.892-0.357-1.369
		c0.281-0.476,0.893-0.635,1.37-0.356C21.428-749.417,26.666-748,32-748c16.541,0,29.998-13.458,29.998-30S48.541-808,32-808
		c-8.033,0-15.579,3.134-21.249,8.824c-0.389,0.392-1.024,0.393-1.416,0.003c-0.392-0.39-0.394-1.022-0.004-1.414
		C15.381-806.657,23.431-810,32-810c17.645,0,32,14.355,32,32C64-760.355,49.645-746,32-746z"/>
	<path fill="#F15A24" d="M46.372-772.866H32.959c-1.913,0-3.47-1.557-3.47-3.47v-21.846c0-0.552,0.448-1,1.001-1
		s1.001,0.448,1.001,1v21.846c0,0.811,0.659,1.47,1.468,1.47h13.413c0.553,0,1.001,0.448,1.001,1S46.925-772.866,46.372-772.866z"/>
	<path fill="#F15A24" d="M10.081-755.08c-0.256,0-0.512-0.098-0.708-0.293c-1.962-1.961-3.671-4.192-5.082-6.629
		c-0.277-0.478-0.112-1.09,0.367-1.366c0.476-0.278,1.09-0.113,1.367,0.365c1.323,2.287,2.926,4.378,4.764,6.216
		c0.391,0.391,0.391,1.024,0,1.415C10.593-755.177,10.336-755.08,10.081-755.08z"/>
	<path fill="#F15A24" d="M2.057-785.023c-0.086,0-0.173-0.011-0.259-0.034c-0.534-0.143-0.852-0.69-0.709-1.224
		c0.719-2.691,1.796-5.288,3.202-7.717c0.276-0.478,0.889-0.643,1.368-0.365c0.479,0.276,0.643,0.888,0.366,1.366
		c-1.317,2.277-2.327,4.71-3.002,7.232C2.903-785.318,2.499-785.023,2.057-785.023z"/>
	<path fill="#F15A24" d="M2.055-768.975c-0.442,0-0.847-0.295-0.966-0.743C0.367-772.42,0-775.207,0-778c0-0.552,0.448-1,1.001-1
		s1.001,0.448,1.001,1c0,2.619,0.343,5.232,1.021,7.767c0.143,0.533-0.174,1.081-0.708,1.224
		C2.228-768.987,2.141-768.975,2.055-768.975z"/>
	<path fill="#F15A24" d="M16.742-797.301c-0.006,0-0.013,0-0.021,0l-6.389-0.13c-0.781-0.017-1.508-0.335-2.049-0.899
		c-0.541-0.563-0.83-1.303-0.813-2.083l0.13-6.389c0.012-0.552,0.454-0.979,1.021-0.979c0.552,0.011,0.991,0.468,0.98,1.021
		l-0.13,6.389c-0.006,0.247,0.086,0.48,0.256,0.658s0.4,0.278,0.645,0.283l6.39,0.13c0.552,0.012,0.991,0.468,0.98,1.02
		C17.732-797.735,17.286-797.301,16.742-797.301z"/>
</g>
<g>
	<g>
		<path fill="#F15A24" d="M59.81-976.242c0.435,0,0.871,0.141,1.311,0.468c0.956,0.716,0.876,3.184,0.876,3.184v31.18
			c0,0,0.08,2.472-0.876,3.184c-0.439,0.328-0.876,0.468-1.312,0.468c-0.701,0-1.4-0.365-2.103-0.901l-10.518-7.06
			c-1.095-0.838-1.757-2.329-1.757-3.928v-14.703c0-1.603,0.662-3.09,1.757-3.928l10.518-7.06
			C58.408-975.876,59.107-976.242,59.81-976.242 M59.81-978.242c-1.062,0-2.132,0.418-3.268,1.277l-10.468,7.027
			c-0.034,0.023-0.068,0.047-0.101,0.072c-1.592,1.218-2.542,3.28-2.542,5.516v14.703c0,2.236,0.95,4.298,2.542,5.516
			c0.032,0.025,0.066,0.049,0.101,0.073l10.469,7.027c1.137,0.857,2.205,1.273,3.266,1.273c0.895,0,1.738-0.291,2.508-0.865
			c1.601-1.193,1.711-3.74,1.68-4.818v-31.118c0.031-1.076-0.078-3.619-1.678-4.816C61.547-977.951,60.703-978.242,59.81-978.242
			L59.81-978.242z"/>
	</g>
	<path fill="#F15A24" d="M8.001-988l25.289,0.003c0.005,0,0.009,0,0.013,0c1.652,0,3.151,0.656,4.232,1.714
		c1.086,1.064,1.756,2.537,1.753,4.161l0.003,50.242c0,3.248-2.688,5.876-6.001,5.879l-25.289-0.003
		c-1.655,0-3.155-0.66-4.242-1.724c-1.083-1.062-1.756-2.531-1.756-4.152L2-982.121C2-985.369,4.686-988,8.001-988 M8.001-990
		L8.001-990c-4.411,0-8,3.534-8.001,7.878l0.003,50.243c0,2.109,0.836,4.09,2.356,5.58c1.511,1.48,3.515,2.296,5.642,2.296
		L33.29-924c4.413-0.004,8.001-3.539,8.001-7.879l-0.003-50.242c0.004-2.113-0.832-4.099-2.354-5.589
		c-1.505-1.474-3.505-2.286-5.632-2.286L8.001-990L8.001-990z"/>
</g>
<g>
	<path fill="#F15A24" d="M62.2,27.389l-6.856-0.934c-0.597-2.529-1.59-4.899-2.916-7.046l4.188-5.507
		c0.604-0.796,0.523-2.026-0.187-2.733l-3.595-3.596c-0.36-0.356-0.847-0.554-1.35-0.583c-0.056-0.005-0.11-0.007-0.166-0.007
		c-0.445,0-0.888,0.133-1.243,0.399l-5.498,4.18c-2.139-1.323-4.505-2.31-7.023-2.903L36.618,1.8C36.484,0.811,35.556,0,34.559,0
		h-0.026h-5.062h-0.026c-0.996,0-1.926,0.807-2.059,1.8l-0.937,6.859c-2.522,0.591-4.888,1.58-7.03,2.903l-3.735-2.836v0.017
		l-1.786-1.36c-0.354-0.271-0.796-0.402-1.241-0.402c-0.548,0-1.098,0.201-1.488,0.593L7.57,11.169
		c-0.703,0.707-0.787,1.934-0.184,2.733l4.185,5.507c-1.323,2.146-2.315,4.517-2.916,7.046l-6.854,0.934
		C0.813,27.525,0,28.455,0,29.448v5.094c0,0.996,0.813,1.923,1.803,2.066l6.854,0.93c0.6,2.523,1.593,4.896,2.916,7.043l-4.185,5.51
		c-0.603,0.793-0.52,2.026,0.187,2.733l3.595,3.6c0.356,0.356,0.85,0.557,1.35,0.583c0.058,0.005,0.115,0.007,0.173,0.007
		c0.442,0,0.88-0.136,1.237-0.41l5.494-4.177c2.139,1.32,4.511,2.311,7.027,2.91l0.937,6.856C27.519,63.18,28.448,64,29.444,64
		h0.026h5.062h0.026c0.997,0,1.926-0.816,2.06-1.807l0.937-6.856c2.519-0.597,4.888-1.59,7.03-2.906l3.731,2.84V55.25l1.786,1.354
		c0.357,0.273,0.804,0.407,1.251,0.407c0.546,0,1.093-0.199,1.481-0.587l3.599-3.597c0.706-0.71,0.786-1.943,0.183-2.736
		l-4.185-5.51c1.322-2.146,2.315-4.52,2.912-7.043l6.856-0.93c0.99-0.137,1.8-1.07,1.8-2.063v-5.093
		C64,28.455,63.19,27.525,62.2,27.389z M61.932,34.626l-6.857,0.931c-0.819,0.11-1.486,0.716-1.677,1.521
		c-0.541,2.286-1.438,4.457-2.669,6.453c-0.434,0.704-0.39,1.602,0.11,2.26l4.174,5.491c0.015,0.035,0.009,0.117,0.007,0.13
		l-3.581,3.582c-0.01,0.006-0.042,0.017-0.085,0.017c-0.021,0-0.038-0.003-0.043-0.003c-0.001,0-0.002,0-0.001,0.001l-1.785-1.353
		c-0.066-0.05-0.135-0.095-0.205-0.136l-3.523-2.682c-0.356-0.271-0.783-0.408-1.211-0.408c-0.362,0-0.726,0.098-1.048,0.296
		c-1.999,1.229-4.167,2.125-6.443,2.664c-0.805,0.19-1.409,0.856-1.521,1.676l-0.932,6.84c-0.014,0.033-0.073,0.086-0.108,0.094
		l-5.06,0.003c-0.036-0.011-0.096-0.064-0.105-0.08l-0.936-6.856c-0.112-0.818-0.715-1.483-1.518-1.675
		c-2.292-0.547-4.459-1.443-6.441-2.667c-0.323-0.199-0.687-0.298-1.05-0.298c-0.428,0-0.854,0.138-1.21,0.408l-5.534,4.179
		c-0.018-0.002-0.035-0.003-0.053-0.004s-0.034-0.005-0.04-0.005c-0.004,0-0.005,0.002,0,0.006l-3.582-3.584
		c-0.019-0.032-0.024-0.112-0.022-0.126l4.185-5.51c0.5-0.658,0.543-1.556,0.11-2.26c-1.229-1.994-2.128-4.166-2.672-6.456
		c-0.191-0.804-0.857-1.408-1.677-1.519l-6.822-0.925C2.067,34.619,2.008,34.555,2,34.542l-0.002-5.067
		c0.01-0.035,0.064-0.096,0.075-0.104l6.854-0.933c0.819-0.112,1.485-0.717,1.676-1.521c0.542-2.289,1.441-4.462,2.672-6.459
		c0.434-0.703,0.39-1.602-0.11-2.26l-4.172-5.486c-0.015-0.033-0.01-0.116-0.008-0.128l3.586-3.587
		c0.009-0.005,0.043-0.017,0.086-0.017c0.013,0,0.024,0.001,0.03,0.001c0.005,0,0.007-0.001,0.004-0.003l1.781,1.355
		c0.062,0.048,0.126,0.091,0.192,0.13l3.545,2.691c0.356,0.271,0.782,0.407,1.21,0.407c0.363,0,0.728-0.099,1.051-0.298
		c1.992-1.23,4.157-2.125,6.435-2.657c0.807-0.189,1.414-0.856,1.526-1.678l0.932-6.843c0.013-0.031,0.069-0.08,0.108-0.087h5.062
		h0.011c0.033,0.013,0.085,0.058,0.094,0.07l0.936,6.859c0.112,0.82,0.718,1.487,1.523,1.677c2.287,0.538,4.45,1.433,6.43,2.657
		c0.324,0.2,0.688,0.299,1.053,0.299c0.428,0,0.854-0.137,1.21-0.408l5.473-4.162c0.005-0.002,0.021-0.007,0.07-0.007
		c0.011,0,0.022,0,0.035,0.001c0.026,0.002,0.046,0.006,0.054,0.006c0.004,0,0.004-0.001,0-0.005l3.584,3.582
		c0.019,0.031,0.022,0.109,0.021,0.122l-4.188,5.507c-0.501,0.658-0.544,1.558-0.109,2.262c1.232,1.995,2.131,4.167,2.67,6.454
		c0.19,0.806,0.857,1.411,1.677,1.523l6.834,0.928c0.033,0.014,0.086,0.073,0.093,0.087l0.002,5.068
		C61.993,34.557,61.939,34.618,61.932,34.626z"/>
	<path fill="#F15A24" d="M33.27,19.529c-0.414-0.033-0.83-0.054-1.256-0.054c-6.914,0-12.521,5.6-12.521,12.522
		c0,6.48,4.928,11.816,11.239,12.463c0.413,0.04,0.836,0.063,1.26,0.063c6.91,0,12.521-5.609,12.521-12.526
		C44.512,25.512,39.584,20.179,33.27,19.529z M31.99,42.524c-0.337,0-0.696-0.019-1.056-0.053
		c-5.383-0.552-9.443-5.054-9.443-10.474c0-5.802,4.72-10.522,10.521-10.522c0.347,0,0.705,0.016,1.051,0.043
		c5.386,0.555,9.447,5.06,9.447,10.479C42.512,37.803,37.791,42.524,31.99,42.524z"/>
</g>
<g>
	<path fill="#F15A24" d="M31.784,127.083c7.332,0,14.262-9.886,14.262-20.341C46.046,92.904,38.29,90,31.784,90
		s-14.262,2.904-14.262,16.742C17.521,117.197,24.453,127.083,31.784,127.083z M31.784,92c8.708,0,12.262,5.606,12.262,14.742
		s-6.033,18.341-12.262,18.341c-6.229,0-12.262-9.205-12.262-18.341S23.076,92,31.784,92z"/>
	<path fill="#F15A24" d="M48.457,124.39c-0.536-0.182-1.097-0.273-1.665-0.273c-1.378,0-2.737,0.557-3.729,1.529
		c-2.669,2.617-6.85,5.434-9.719,5.434h-2.689c-2.87,0-7.049-2.816-9.719-5.434c-0.992-0.973-2.351-1.529-3.729-1.529
		c-0.568,0-1.128,0.092-1.665,0.273c-9.871,3.351-14.807,11.008-15.535,24.099c-0.079,1.421,0.423,2.78,1.414,3.827
		C2.435,153.386,3.867,154,5.353,154h53.295c1.485,0,2.918-0.614,3.931-1.685c0.99-1.047,1.493-2.406,1.414-3.827
		C63.264,135.397,58.327,127.74,48.457,124.39z M58.647,152H5.353c-1.904,0-3.451-1.549-3.348-3.401
		c0.755-13.581,6.157-19.592,14.181-22.314c0.335-0.114,0.68-0.168,1.022-0.168c0.859,0,1.701,0.343,2.328,0.957
		c2.879,2.822,7.525,6.006,11.119,6.006h2.689c3.595,0,8.24-3.184,11.119-6.006c0.627-0.614,1.469-0.957,2.328-0.957
		c0.342,0,0.688,0.054,1.022,0.168c8.023,2.723,13.426,8.733,14.181,22.314C62.098,150.451,60.552,152,58.647,152z"/>
</g>
<g>
	<path fill="#F15A24" d="M37.955-306.478c1.215,0,2.203-0.991,2.203-2.209s-0.988-2.209-2.203-2.209h-11.91
		c-1.215,0-2.204,0.991-2.204,2.209s0.989,2.209,2.204,2.209H37.955z M25.841-308.687c0-0.115,0.091-0.209,0.204-0.209h11.91
		c0.112,0,0.203,0.094,0.203,0.209s-0.091,0.209-0.203,0.209h-11.91C25.933-308.478,25.841-308.571,25.841-308.687z"/>
	<path fill="#F15A24" d="M38.896-305.656H25.104c-1.215,0-2.204,0.99-2.204,2.209c0,1.218,0.988,2.209,2.204,2.209h13.791
		c1.215,0,2.204-0.991,2.204-2.209C41.1-304.666,40.11-305.656,38.896-305.656z M38.896-303.238H25.104
		c-0.113,0-0.204-0.094-0.204-0.209c0-0.116,0.091-0.209,0.204-0.209h13.791c0.112,0,0.204,0.093,0.204,0.209
		C39.1-303.332,39.008-303.238,38.896-303.238z"/>
	<path fill="#F15A24" d="M36.217-300.418h-8.433c-1.215,0-2.204,0.991-2.204,2.209S26.568-296,27.784-296h8.433
		c1.215,0,2.203-0.991,2.203-2.209S37.432-300.418,36.217-300.418z M36.217-298h-8.433c-0.113,0-0.204-0.094-0.204-0.209
		s0.091-0.209,0.204-0.209h8.433c0.112,0,0.203,0.094,0.203,0.209S36.329-298,36.217-298z"/>
	<path fill="#F15A24" d="M32-360c-10.74,0-19.478,8.798-19.478,19.613c0,3.712,1.247,7.377,3.81,11.195
		c0.05,0.113,0.112,0.222,0.186,0.326c0.344,0.488,0.686,0.957,1.023,1.421c0.945,1.298,1.838,2.524,2.694,4.033
		c2.133,3.772,2.048,7.414,2.016,8.785c-0.004,0.189-0.007,0.34-0.006,0.448l0,0.148c0,1.104,0.896,2,2,2h15.523
		c1.104,0,2-0.896,2-2v-0.175c0-0.125-0.004-0.286-0.01-0.479c-0.045-1.483-0.148-4.958,1.984-8.729
		c0.854-1.507,1.748-2.733,2.693-4.032c0.338-0.464,0.679-0.932,1.022-1.42c0.045-0.063,0.086-0.129,0.123-0.197
		c2.622-3.865,3.896-7.575,3.896-11.337C51.478-351.207,42.74-360,32-360z M45.812-330.019h0.012
		c-1.322,1.874-2.598,3.46-3.823,5.622c-2.67,4.722-2.233,9.081-2.233,10.193v0.175H24.244v-0.175
		c-0.012-0.912,0.401-5.472-2.27-10.193c-1.226-2.161-2.5-3.748-3.823-5.622h0.037c-2.063-2.998-3.666-6.495-3.666-10.368
		C14.522-350.118,22.545-358,32-358s17.478,7.882,17.478,17.601C49.478-336.514,47.876-333.017,45.812-330.019z"/>
</g>
<g>
	<path fill="#F15A24" d="M25.492-59.636c2.724,0,4.929-2.21,4.929-4.93c0-2.727-2.206-4.929-4.929-4.929
		c-2.72,0-4.929,2.202-4.929,4.929C20.563-61.846,22.772-59.636,25.492-59.636z M25.492-67.494c1.615,0,2.929,1.313,2.929,2.929
		s-1.314,2.93-2.929,2.93c-1.615,0-2.929-1.314-2.929-2.93S23.877-67.494,25.492-67.494z"/>
	<path fill="#F15A24" d="M41.401-59.51c-0.5-0.723-1.283-1.083-2.066-1.083c-0.791,0-1.582,0.367-2.08,1.102l-7.1,10.455
		c-0.499,0.734-1.289,1.102-2.08,1.102c-0.783,0-1.566-0.36-2.066-1.083l-3.373-4.872c-0.5-0.722-1.284-1.083-2.067-1.083
		c-0.791,0-1.581,0.368-2.079,1.102L8.397-39.013c-1.134,1.67,0.062,3.926,2.079,3.926c0.001,0,0.003,0,0.004,0l10.209-0.016
		l-0.014,0.023l32.81-0.048c2.025-0.003,3.216-2.278,2.062-3.944L41.401-59.51z M53.938-37.402
		c-0.065,0.125-0.198,0.275-0.454,0.275L20.99-37.079c-0.099-0.016-0.199-0.023-0.301-0.023c-0.001,0-0.002,0-0.003,0l-10.209,0.016
		c-0.257,0-0.389-0.148-0.455-0.272c-0.066-0.125-0.114-0.317,0.029-0.529l10.092-14.858c0.126-0.187,0.301-0.226,0.425-0.226
		c0.123,0,0.295,0.039,0.422,0.222l3.373,4.872c0.843,1.218,2.23,1.944,3.711,1.944c1.497,0,2.893-0.739,3.734-1.978l7.1-10.456
		c0.127-0.186,0.301-0.225,0.426-0.225c0.122,0,0.295,0.038,0.422,0.221l14.147,20.439C54.051-37.722,54.003-37.528,53.938-37.402z"
		/>
	<path fill="#F15A24" d="M63.997-81.999c0.004-2.138-0.827-4.149-2.339-5.661c-1.507-1.507-3.512-2.337-5.646-2.337L8.001-90l0,0
		c-4.411,0-8,3.589-8.001,8l0.003,47.999c0,2.134,0.832,4.141,2.341,5.651c1.513,1.514,3.522,2.347,5.657,2.347L55.999-26
		C60.412-26.004,64-29.594,64-34.002L63.997-81.999z M55.999-28L8.001-28.003c-1.655,0-3.155-0.673-4.242-1.76
		c-1.083-1.084-1.756-2.584-1.756-4.238L2-81.999C2-85.314,4.686-88,8.001-88l47.998,0.003c0.004,0,0.008,0,0.013,0
		c1.652,0,3.151,0.67,4.232,1.751c1.086,1.086,1.756,2.59,1.753,4.247L62-34.002C62-30.686,59.312-28.003,55.999-28z"/>
</g>
<g>
	<path fill="#F15A24" d="M39.738-235.94c-0.814-0.815-1.897-1.264-3.051-1.264l-9.37-0.002l0,0c-2.382,0-4.32,1.939-4.32,4.323
		l0.001,18.582c0,1.152,0.449,2.237,1.263,3.054c0.817,0.818,1.902,1.269,3.056,1.269l9.364,0.001
		c2.384-0.002,4.32-1.941,4.32-4.323l-0.001-18.582C41.003-234.036,40.555-235.123,39.738-235.94z M36.683-211.978l-9.365-0.001
		c-0.64,0-1.22-0.261-1.64-0.682c-0.418-0.419-0.679-1-0.679-1.641l-0.001-18.582c0-1.283,1.039-2.323,2.32-2.323l9.365,0.002
		c0.001,0,0.003,0,0.005,0c0.639,0,1.218,0.259,1.636,0.677c0.42,0.421,0.679,1.003,0.678,1.645l0.001,18.582
		C39.002-213.018,37.963-211.979,36.683-211.978z"/>
	<path fill="#F15A24" d="M60.174-250.93L37.83-268.021C36.138-269.316,34.122-270,32-270s-4.138,0.684-5.83,1.979L3.826-250.93
		C1.43-249.097,0-246.189,0-243.154v27.4C0-210.375,4.332-206,9.656-206h44.688c5.324,0,9.656-4.375,9.656-9.754v-27.4
		C64-246.189,62.569-249.097,60.174-250.93z M62-215.754c0,4.282-3.428,7.754-7.656,7.754H9.656C5.428-208,2-211.472,2-215.754
		v-27.4c0-2.431,1.126-4.721,3.042-6.187l22.344-17.093C28.75-267.478,30.375-268,32-268s3.249,0.522,4.614,1.566l22.345,17.093
		c1.915,1.466,3.041,3.756,3.041,6.187V-215.754z"/>
</g>
<g>
	<path fill="#F15A24" d="M60.54-135.754c-5.073-3.604-5.826-7.412-8.195-22.963c-1.298-8.519-6.505-14.682-14.048-16.753
		c-0.603-2.333-2.537-4.151-4.964-4.474c-0.28-0.038-0.565-0.057-0.846-0.057c-2.849,0-5.241,1.92-5.853,4.486
		c-8.124,1.891-13.132,7.668-14.523,16.797c-2.335,15.328-3.407,19.285-8.584,22.963c-3.259,2.314-3.521,4.558-3.525,7.25
		c-0.006,0.576-0.015,1.354,0.621,1.995c0.375,0.38,0.898,0.599,1.432,0.599h59.829c0.532,0,1.055-0.219,1.431-0.597
		c0.604-0.607,0.689-1.518,0.687-2.006C63.996-131.222,63.739-133.481,60.54-135.754z M61.883-127.91H2.054
		c-0.065,0-0.053-0.53-0.053-0.591c0.003-2.38,0.194-3.854,2.683-5.622c5.835-4.146,7.011-8.587,9.403-24.292
		c1.384-9.08,6.386-14.095,14.395-15.428v-0.377c0-2.088,1.792-3.78,4.004-3.78c0.191,0,0.386,0.013,0.583,0.039
		c2.029,0.27,3.422,2.098,3.422,4.032v0.086c6.674,1.333,12.493,6.348,13.876,15.428c2.394,15.705,3.18,20.146,9.015,24.292
		c2.489,1.768,2.615,3.242,2.618,5.622C62-128.44,61.947-127.91,61.883-127.91z"/>
	<path fill="#F15A24" d="M37.417-124.365l-8.025-0.001c-3.621,0-3.621,0-4.204,0.567c-0.397,0.387-0.617,0.922-0.604,1.478
		C24.665-118.6,27.715-116,32-116s7.335-2.6,7.417-6.322c0.012-0.537-0.194-1.058-0.57-1.442
		C38.471-124.148,37.955-124.365,37.417-124.365z M32-118c-2.954,0-5.356-1.591-5.417-4.365c0,0,1.204-0.001,2.809-0.001
		c3.21,0,8.025,0.001,8.025,0.001C37.356-119.591,34.954-118,32-118z"/>
</g>
<g>
	<path fill="#F15A24" d="M59.09,180c-0.358,0-0.719,0.039-1.071,0.116l-18.734,4.103c-1.341,0.294-2.431,1.102-3.107,2.181
		c-0.896-1.049-2.212-1.728-3.696-1.728H4.883c-2.693,0-4.883,2.19-4.883,4.883v44.891c0,2.692,2.19,4.883,4.883,4.883h27.598
		c1.484,0,2.799-0.68,3.696-1.728c0.677,1.079,1.767,1.887,3.107,2.181l18.734,4.103c0.353,0.077,0.713,0.116,1.071,0.116
		c2.708,0,4.91-2.177,4.91-4.853v-54.295C64,182.177,61.798,180,59.09,180z M38.461,196.73c1.133,0,2.05,0.918,2.05,2.051
		c0,1.132-0.917,2.05-2.05,2.05h-3.723c-1.132,0-2.05-0.918-2.05-2.05c0-1.133,0.918-2.051,2.05-2.051H38.461z M35.364,234.445
		c0,1.592-1.291,2.883-2.883,2.883H4.883c-1.592,0-2.883-1.291-2.883-2.883v-44.891c0-1.592,1.291-2.883,2.883-2.883h27.598
		c1.592,0,2.883,1.291,2.883,2.883v5.176h-0.626c-2.233,0-4.05,1.817-4.05,4.051c0,2.232,1.817,4.05,4.05,4.05h0.626v17.899h-0.626
		c-2.233,0-4.05,1.817-4.05,4.051c0,2.232,1.817,4.05,4.05,4.05h0.626V234.445z M34.738,226.831c-1.132,0-2.05-0.918-2.05-2.05
		c0-1.133,0.918-2.051,2.05-2.051h3.723c1.133,0,2.05,0.918,2.05,2.051c0,1.132-0.917,2.05-2.05,2.05H34.738z M62,239.147
		c0,1.609-1.344,2.853-2.91,2.853c-0.211,0-0.427-0.022-0.644-0.07l-18.734-4.103c-1.332-0.291-2.279-1.447-2.279-2.782v-6.214
		h1.028c2.233,0,4.05-1.817,4.05-4.05c0-2.233-1.816-4.051-4.05-4.051h-1.028v-17.899h1.028c2.233,0,4.05-1.817,4.05-4.05
		c0-2.233-1.816-4.051-4.05-4.051h-1.028v-5.775c0-1.335,0.947-2.491,2.279-2.783l18.734-4.102c0.217-0.048,0.433-0.07,0.644-0.07
		c1.566,0,2.91,1.243,2.91,2.853V239.147z"/>
</g>
<path fill="#F15A24" d="M61.796-437.869c-0.797-3.77-4.896-4.144-9.642-4.575c-5.773-0.525-12.959-1.18-18.717-6.966
	C33.062-449.788,32.552-450,32.02-450h-0.053c-0.532,0-1.042,0.212-1.418,0.589c-5.758,5.787-12.938,6.441-18.708,6.966
	c-4.743,0.432-8.839,0.805-9.635,4.575c-1.851,8.765,7.675,39.779,25.55,50.678C29.032-386.412,30.5-386,32-386
	s2.968-0.412,4.246-1.191C54.12-398.09,63.646-429.104,61.796-437.869z M35.204-388.898C34.222-388.299,33.111-388,32-388
	s-2.222-0.299-3.205-0.898c-17.367-10.59-26.282-40.752-24.634-48.557c1.159-5.488,16.922,0.393,27.805-10.544h0.053
	c10.883,10.938,26.66,5.057,27.819,10.544C61.486-429.65,52.571-399.489,35.204-388.898z"/>
<g>
	<path fill="#F15A24" d="M34.896-611.641h-5.791c-1.215,0-2.204,0.991-2.204,2.209c0,1.218,0.988,2.209,2.204,2.209h5.791
		c1.215,0,2.204-0.991,2.204-2.209C37.1-610.65,36.11-611.641,34.896-611.641z M34.896-609.223h-5.791
		c-0.113,0-0.204-0.094-0.204-0.209c0-0.116,0.091-0.209,0.204-0.209h5.791c0.112,0,0.204,0.093,0.204,0.209
		C35.1-609.316,35.008-609.223,34.896-609.223z"/>
	<path fill="#F15A24" d="M30.538-602.402h-1.433c-1.215,0-2.204,0.991-2.204,2.209c0,1.218,0.988,2.209,2.204,2.209h1.433
		c1.215,0,2.204-0.991,2.204-2.209C32.741-601.411,31.752-602.402,30.538-602.402z M30.538-599.984h-1.433
		c-0.113,0-0.204-0.093-0.204-0.209c0-0.115,0.091-0.209,0.204-0.209h1.433c0.112,0,0.204,0.094,0.204,0.209
		C30.741-600.078,30.65-599.984,30.538-599.984z"/>
	<path fill="#F15A24" d="M29.104-616.461h1.433c1.215,0,2.204-0.991,2.204-2.209c0-1.218-0.989-2.209-2.204-2.209h-1.433
		c-1.215,0-2.204,0.991-2.204,2.209C26.901-617.453,27.889-616.461,29.104-616.461z M29.104-618.879h1.433
		c0.112,0,0.204,0.093,0.204,0.209c0,0.115-0.091,0.209-0.204,0.209h-1.433c-0.113,0-0.204-0.094-0.204-0.209
		C28.901-618.786,28.992-618.879,29.104-618.879z"/>
	<path fill="#F15A24" d="M40.151-592.958v-28.677c0-4.612-3.656-8.364-8.151-8.364c-4.495,0-8.152,3.752-8.152,8.364v28.677
		c-4.349,2.677-7.001,7.297-7.001,12.329C16.847-572.562,23.645-566,32-566s15.153-6.562,15.153-14.629
		C47.153-585.661,44.501-590.281,40.151-592.958z M32-568c-7.265,0-13.153-5.654-13.153-12.629c0-4.84,2.838-9.04,7.001-11.16
		v-29.847c0-3.5,2.769-6.364,6.152-6.364c3.383,0,6.151,2.864,6.151,6.364v29.847c4.163,2.12,7.002,6.319,7.002,11.16
		C45.153-573.654,39.265-568,32-568z"/>
</g>
<g>
	<path fill="#F15A24" d="M63.997-532c0.004-2.137-0.827-4.149-2.339-5.661c-1.507-1.506-3.512-2.336-5.646-2.336L8.001-540l0,0
		c-4.411,0-8,3.589-8.001,8L0.003-484c0,2.133,0.832,4.14,2.341,5.651c1.513,1.513,3.522,2.346,5.657,2.346L55.999-476
		c4.413-0.004,8.001-3.594,8.001-8.001L63.997-532z M55.999-478l-47.998-0.003c-1.655,0-3.155-0.673-4.242-1.759
		c-1.083-1.083-1.756-2.584-1.756-4.238L2-531.999C2-535.314,4.686-538,8.001-538l47.998,0.003c0.004,0,0.008,0,0.013,0
		c1.652,0,3.151,0.669,4.232,1.75c1.086,1.086,1.756,2.589,1.753,4.247L62-484.001C62-480.686,59.312-478.003,55.999-478z"/>
	<path fill="#F15A24" d="M32-527.771c-6.621,0-12.007,5.386-12.007,12.007c0,4.039,2.013,7.757,5.327,9.975v10.518
		c0,3.884,2.997,7.043,6.68,7.043s6.681-3.159,6.681-7.043v-10.518c3.313-2.217,5.327-5.936,5.327-9.975
		C44.008-522.385,38.621-527.771,32-527.771z M36.681-506.921v11.65c0,2.774-2.106,5.043-4.681,5.043
		c-2.575,0-4.68-2.269-4.68-5.043v-11.65c-3.167-1.68-5.327-5.008-5.327-8.843c0-5.527,4.48-10.007,10.007-10.007
		c5.527,0,10.008,4.48,10.008,10.007C42.008-511.929,39.848-508.602,36.681-506.921z"/>
</g>
<g>
	<path fill="#F15A24" d="M50.5-899.709c-0.39-0.389-1.024-0.387-1.414,0.003c-0.39,0.392-0.388,1.025,0.004,1.415
		c8.166,8.127,12.664,18.933,12.664,30.427c0,11.35-4.407,22.061-12.409,30.162c-0.389,0.393-0.385,1.026,0.008,1.414
		c0.195,0.192,0.449,0.289,0.703,0.289c0.258,0,0.516-0.099,0.711-0.297c8.375-8.477,12.987-19.688,12.987-31.567
		C63.754-879.894,59.047-891.203,50.5-899.709z"/>
	<path fill="#F15A24" d="M36.651-887.331c-0.39,0.392-0.388,1.025,0.004,1.415c4.845,4.822,7.514,11.233,7.514,18.052
		c0,6.67-2.582,12.986-7.27,17.784c-0.387,0.395-0.379,1.028,0.016,1.414c0.195,0.19,0.447,0.285,0.699,0.285
		c0.26,0,0.52-0.101,0.715-0.301c5.056-5.174,7.84-11.986,7.84-19.182c0-7.354-2.878-14.269-8.104-19.47
		C37.676-887.723,37.041-887.721,36.651-887.331z"/>
	<path fill="#F15A24" d="M32.03-868.669h-3.58l-2.839-2.343c1.397-0.981,2.315-2.602,2.315-4.436c0-2.988-2.431-5.419-5.419-5.419
		s-5.419,2.431-5.419,5.419c0,0.391,0.044,0.771,0.123,1.14l-5.087-0.438c-0.981-0.104-1.962,0.3-2.606,1.092l-4.181,5.136
		c-1.044,1.283-0.85,3.176,0.433,4.22c0.533,0.435,1.205,0.674,1.894,0.674c0.906,0,1.755-0.403,2.327-1.106l3.178-3.905
		l1.434,0.124l-2.297,4.39c-0.55,0.414-0.937,0.999-1.104,1.677l-1.468,5.959H3.246c-1.654,0-3,1.346-3,3s1.346,3,3,3h8.838
		c1.384,0,2.581-0.938,2.913-2.282l1.125-4.564l6.623,11.442c0.535,0.923,1.53,1.497,2.599,1.497c0.525,0,1.044-0.14,1.501-0.404
		c0.693-0.401,1.189-1.049,1.396-1.823c0.207-0.774,0.099-1.583-0.303-2.276l-7.102-12.268l2.054-4.312l2.574,2.124
		c0.537,0.442,1.215,0.685,1.908,0.685h4.658c1.654,0,3-1.346,3-3S33.685-868.669,32.03-868.669z M22.508-878.868
		c1.885,0,3.419,1.534,3.419,3.419s-1.534,3.419-3.419,3.419s-3.419-1.534-3.419-3.419S20.623-878.868,22.508-878.868z
		 M32.03-864.669h-4.658c-0.231,0-0.457-0.082-0.636-0.229l-3.562-2.938c-0.238-0.195-0.551-0.272-0.854-0.205
		c-0.301,0.066-0.554,0.268-0.687,0.546l-2.831,5.944c-0.142,0.298-0.127,0.646,0.038,0.931l7.365,12.724
		c0.134,0.231,0.17,0.501,0.101,0.759c-0.068,0.258-0.233,0.474-0.465,0.607c-0.465,0.269-1.102,0.093-1.367-0.364l-7.866-13.588
		c-0.181-0.312-0.512-0.499-0.865-0.499c-0.047,0-0.094,0.003-0.142,0.01c-0.403,0.057-0.731,0.354-0.829,0.75l-1.718,6.973
		c-0.11,0.448-0.511,0.761-0.972,0.761H3.246c-0.552,0-1-0.449-1-1s0.448-1,1-1h7.271c0.46,0,0.861-0.314,0.971-0.761l1.655-6.72
		c0.064-0.259,0.225-0.478,0.451-0.615c0.156-0.094,0.283-0.23,0.367-0.391l3.109-5.942c0.155-0.297,0.152-0.651-0.009-0.944
		c-0.161-0.293-0.458-0.487-0.791-0.516l-3.458-0.297c-0.336-0.033-0.652,0.108-0.861,0.365l-3.512,4.315
		c-0.19,0.235-0.474,0.369-0.776,0.369c-0.162,0-0.402-0.039-0.63-0.225c-0.429-0.349-0.493-0.979-0.146-1.407l4.181-5.136
		c0.216-0.264,0.534-0.397,0.861-0.365l5.914,0.509c1.463,1.654,3.582,2.525,5.863,2.258l3.746,3.091
		c0.18,0.147,0.404,0.229,0.637,0.229h3.939c0.552,0,1,0.449,1,1S32.582-864.669,32.03-864.669z"/>
</g>
<g>
	<path fill="#F15A24" d="M49.663,307.684L49.663,307.684l-35.326-0.001c-0.553,0-1-0.447-1-1s0.448-1,1-1l0,0l35.326,0.001
		c0.553,0,1,0.447,1,1S50.215,307.684,49.663,307.684z"/>
	<path fill="#F15A24" d="M49.663,299.276L49.663,299.276l-35.326-0.001c-0.553,0-1-0.447-1-1s0.448-1,1-1l0,0l35.326,0.001
		c0.553,0,1,0.447,1,1S50.215,299.276,49.663,299.276z"/>
	<path fill="#F15A24" d="M49.663,324.499L49.663,324.499l-35.326-0.001c-0.553,0-1-0.447-1-1s0.448-1,1-1l0,0l35.326,0.001
		c0.553,0,1,0.447,1,1S50.215,324.499,49.663,324.499z"/>
	<path fill="#F15A24" d="M49.663,316.092L49.663,316.092l-35.326-0.002c-0.553,0-1-0.448-1-1c0-0.553,0.448-1,1-1l0,0l35.326,0.002
		c0.553,0,1,0.448,1,1C50.663,315.645,50.215,316.092,49.663,316.092z"/>
	<g>
		<path fill="#F15A24" d="M32,272c1.625,0,3.249,0.522,4.614,1.566l22.345,17.093c1.915,1.466,3.041,3.756,3.041,6.187v27.4
			c0,4.282-3.428,7.754-7.656,7.754H9.656C5.428,332,2,328.528,2,324.246v-27.4c0-2.431,1.126-4.721,3.042-6.187l22.344-17.093
			C28.75,272.522,30.375,272,32,272 M32,270c-2.122,0-4.138,0.684-5.83,1.979L3.826,289.07C1.431,290.903,0,293.811,0,296.846v27.4
			C0,329.625,4.332,334,9.656,334h44.688c5.324,0,9.656-4.375,9.656-9.754v-27.4c0-3.035-1.431-5.942-3.826-7.775L37.83,271.979
			C36.139,270.684,34.122,270,32,270L32,270z"/>
	</g>
</g>
</svg>
