<?xml version="1.0" encoding="utf-8"?>
<!-- Generator: Adobe Illustrator 16.0.0, SVG Export Plug-In . SVG Version: 6.00 Build 0)  -->
<!DOCTYPE svg PUBLIC "-//W3C//DTD SVG 1.1//EN" "http://www.w3.org/Graphics/SVG/1.1/DTD/svg11.dtd">
<svg version="1.1" id="Layer_1" xmlns="http://www.w3.org/2000/svg" xmlns:xlink="http://www.w3.org/1999/xlink" x="0px" y="0px"
	 width="73.904px" height="73.904px" viewBox="0 0 73.904 73.904" enable-background="new 0 0 73.904 73.904" xml:space="preserve">
<path fill="#FFFFFF" d="M36.952,0C16.545,0,0,16.544,0,36.951C0,57.36,16.545,73.904,36.952,73.904
	c20.408,0,36.952-16.544,36.952-36.953C73.904,16.544,57.36,0,36.952,0z M42.137,38.146v12.904c0,3.073-2.333,5.587-5.185,5.587
	s-5.185-2.514-5.185-5.587V38.146c-3.508-1.86-5.9-5.547-5.9-9.795c0-6.122,4.963-11.085,11.085-11.085s11.085,4.963,11.085,11.085
	C48.037,32.6,45.646,36.286,42.137,38.146z"/>
</svg>
