<?xml version="1.0" standalone="no"?>
<!DOCTYPE svg PUBLIC "-//W3C//DTD SVG 1.1//EN" "http://www.w3.org/Graphics/SVG/1.1/DTD/svg11.dtd" >
<svg xmlns="http://www.w3.org/2000/svg">
<metadata>Generated by IcoMoon</metadata>
<defs>
<font id="icomoon" horiz-adv-x="1024">
<font-face units-per-em="1024" ascent="960" descent="-64" />
<missing-glyph horiz-adv-x="1024" />
<glyph unicode="&#x20;" horiz-adv-x="512" d="" />
<glyph unicode="&#xe900;" glyph-name="alert" horiz-adv-x="1023" d="M978.284 196.957c-99.481 72.063-112.884 149.328-153.704 422.464-23.562 157.896-122.767 245.106-236.538 268.301v1.499c0 33.66-23.715 65.454-58.324 70.105-42.106 5.753-78.183-25.612-78.183-65.056v-6.548c-136.599-23.195-221.881-110.405-245.474-268.301-40.79-273.136-60.833-350.371-160.314-422.464-42.442-30.722-45.686-56.365-45.747-97.767 0-1.071-0.214-10.282 0.887-10.282h1019.991c1.132 0 2.020 9.211 1.989 10.282 0 41.402-2.173 67.045-44.584 97.767zM410.622 20.67c-1.163 0-2.142 5.998-2.111 4.896 1.163-53.519 46.543-89.566 102.388-89.566 55.814 0 101.256 36.047 102.388 89.566 0 1.102-0.949-4.896-2.081-4.896h-200.583z" />
<glyph unicode="&#xe901;" glyph-name="brightness" d="M512 226.718c-122.035 0-221.314 99.279-221.314 221.282 0 122.035 99.279 221.314 221.314 221.314s221.314-99.279 221.314-221.314c0-122.002-99.279-221.282-221.314-221.282zM512 620.552c-95.151 0-172.552-77.401-172.552-172.552 0-95.118 77.401-172.52 172.552-172.52s172.552 77.401 172.552 172.52c0 95.151-77.401 172.552-172.552 172.552zM512 763.555c-13.458 0-24.381 10.923-24.381 24.381v147.684c0 13.458 10.923 24.381 24.381 24.381s24.381-10.923 24.381-24.381v-147.684c0-13.491-10.923-24.381-24.381-24.381zM271.636 663.983c-6.242 0-12.483 2.373-17.229 7.152l-104.448 104.415c-9.525 9.525-9.525 24.966 0 34.491s24.966 9.525 34.491 0l104.415-104.415c9.525-9.525 9.525-24.966 0-34.491-4.746-4.779-10.988-7.152-17.229-7.152zM172.065 423.619h-147.684c-13.458 0-24.381 10.923-24.381 24.381s10.923 24.381 24.381 24.381h147.684c13.458 0 24.381-10.923 24.381-24.381s-10.923-24.381-24.381-24.381zM167.221 78.84c-6.242 0-12.483 2.373-17.229 7.152-9.525 9.525-9.525 24.966 0 34.491l104.415 104.415c9.525 9.525 24.966 9.525 34.491 0s9.525-24.966 0-34.491l-104.415-104.415c-4.811-4.779-11.053-7.152-17.262-7.152zM512-64c-13.458 0-24.381 10.923-24.381 24.381v147.716c0 13.458 10.923 24.381 24.381 24.381s24.381-10.923 24.381-24.381v-147.716c0-13.491-10.923-24.381-24.381-24.381zM856.779 78.84c-6.242 0-12.483 2.373-17.229 7.152l-104.448 104.415c-9.525 9.525-9.525 24.966 0 34.491s24.966 9.525 34.491 0l104.448-104.415c9.525-9.525 9.525-24.966 0-34.491-4.779-4.779-10.988-7.152-17.262-7.152zM999.619 423.619h-147.716c-13.458 0-24.381 10.923-24.381 24.381s10.923 24.381 24.381 24.381h147.716c13.458 0 24.381-10.923 24.381-24.381s-10.923-24.381-24.381-24.381zM752.364 663.983c-6.242 0-12.483 2.373-17.229 7.152-9.525 9.525-9.525 24.966 0 34.491l104.448 104.415c9.525 9.525 24.966 9.525 34.491 0s9.525-24.966 0-34.491l-104.448-104.415c-4.811-4.779-11.020-7.152-17.262-7.152z" />
<glyph unicode="&#xe902;" glyph-name="camera" d="M943.476 746.543c6.749 0 13.514-2.188 20.34-7.261 14.832-11.109 13.591-49.4 13.591-49.4v-483.762c0 0 1.241-38.353-13.591-49.4-6.811-5.089-13.591-7.261-20.356-7.261-10.876 0-21.721 5.663-32.628 13.979l-163.188 109.537c-16.989 13.002-27.26 36.135-27.26 60.944v228.119c0 24.871 10.271 47.942 27.26 60.944l163.188 109.537c10.892 8.347 21.737 14.026 32.644 14.026zM943.476 777.573c-16.477 0-33.078-6.485-50.704-19.813l-162.413-109.025c-0.528-0.357-1.055-0.729-1.567-1.117-24.7-18.897-39.44-50.89-39.44-85.582v-228.119c0-34.692 14.739-66.684 39.44-85.582 0.496-0.388 1.024-0.76 1.567-1.133l162.428-109.025c17.641-13.296 34.211-19.751 50.672-19.751 13.886 0 26.965 4.515 38.912 13.421 24.84 18.51 26.546 58.027 26.065 74.752v482.8c0.481 16.694-1.21 56.149-26.034 74.721-11.978 8.937-25.072 13.452-38.928 13.452v0zM139.652 928.97l392.363-0.047c0.078 0 0.14 0 0.202 0 25.631 0 48.888-10.178 65.66-26.593 16.849-16.508 27.245-39.362 27.198-64.559l0.047-779.512c0-50.393-41.705-91.167-93.106-91.214l-392.363 0.031c-25.678 0-48.95 10.24-65.815 26.748-16.803 16.477-27.245 39.269-27.245 64.419l-0.047 779.512c0 50.393 41.674 91.214 93.106 91.214zM139.652 960v0c-68.437 0-124.121-54.831-124.137-122.228l0.047-779.528c0-32.721 12.971-63.457 36.554-86.575 23.443-22.962 54.536-35.623 87.536-35.623l392.363-0.047c68.468 0.062 124.137 54.908 124.137 122.244l-0.047 779.512c0.062 32.784-12.909 63.597-36.523 86.714-23.35 22.869-54.381 35.468-87.381 35.468l-392.549 0.062z" />
<glyph unicode="&#xe903;" glyph-name="checkok" d="M891.217 822.849l-535.319-535.319-218.060 218.047c-31.537 31.537-82.659 31.537-114.195 0s-31.537-82.659 0-114.195l332.256-332.243 649.501 649.514c31.55 31.537 0 114.195 0 114.195s-82.659 31.537-114.182 0z" />
<glyph unicode="&#xe904;" glyph-name="connectivity" d="M286.782 443.423c0-42.844-34.676-77.576-77.452-77.576s-77.452 34.732-77.452 77.576c0 42.844 34.676 77.576 77.452 77.576s77.452-34.732 77.452-77.576zM532.294 79.376c-3.925 0-7.851 1.489-10.861 4.437-6.128 6.004-6.206 15.841-0.217 21.938 89.026 90.702 138.054 210.618 138.054 337.672 0 128.667-50.036 249.654-140.893 340.651-6.051 6.066-6.035 15.888 0.016 21.938 6.066 6.051 15.888 6.066 21.954-0.016 96.69-96.846 149.954-225.621 149.954-362.574 0-135.23-52.177-262.858-146.944-359.393-3.025-3.103-7.044-4.655-11.062-4.655zM670.829-64c-3.925 0-7.851 1.489-10.861 4.437-6.128 6.004-6.206 15.841-0.217 21.938 127.457 129.831 197.648 301.537 197.648 483.452 0 184.242-71.618 357.438-201.697 487.688-6.051 6.066-6.051 15.888 0.016 21.938s15.888 6.066 21.954-0.016c135.913-136.099 210.758-317.099 210.758-509.611 0-190.107-73.356-369.509-206.538-505.189-3.041-3.088-7.044-4.639-11.062-4.639zM392.688 219.198c-3.894 0-7.789 1.458-10.799 4.375-6.144 5.973-6.299 15.794-0.326 21.938 51.836 53.403 80.4 123.702 80.4 197.911 0 75.9-29.51 147.254-83.084 200.906-6.051 6.066-6.051 15.888 0.016 21.938s15.872 6.051 21.938-0.016c59.439-59.501 92.16-138.643 92.16-222.829 0-82.339-31.666-160.287-89.15-219.508-3.056-3.15-7.106-4.717-11.155-4.717z" />
<glyph unicode="&#xe905;" glyph-name="garage" d="M794.608 357.056v0l-565.216 0.016c-8.848 0-16 7.152-16 16s7.168 16 16 16v0l565.216-0.016c8.848 0 16-7.152 16-16s-7.168-16-16-16zM794.608 491.584v0l-565.216 0.016c-8.848 0-16 7.152-16 16s7.168 16 16 16v0l565.216-0.016c8.848 0 16-7.152 16-16s-7.168-16-16-16zM794.608 88.016v0l-565.216 0.016c-8.848 0-16 7.152-16 16s7.168 16 16 16v0l565.216-0.016c8.848 0 16-7.152 16-16s-7.168-16-16-16zM794.608 222.528v0l-565.216 0.032c-8.848 0-16 7.168-16 16 0 8.848 7.168 16 16 16v0l565.216-0.032c8.848 0 16-7.168 16-16 0-8.848-7.168-16-16-16zM512 928c26 0 51.984-8.352 73.824-25.056l357.52-273.488c30.64-23.456 48.656-60.096 48.656-98.992v-438.4c0-68.512-54.848-124.064-122.496-124.064h-715.008c-67.648 0-122.496 55.552-122.496 124.064v438.4c0 38.896 18.016 75.536 48.672 98.992l357.488 273.488c21.84 16.704 47.84 25.056 73.84 25.056zM512 960c-33.952 0-66.208-10.944-93.28-31.664l-357.504-273.456c-38.32-29.328-61.216-75.856-61.216-124.416v-438.4c0-86.064 69.312-156.064 154.496-156.064h715.008c85.184 0 154.496 70 154.496 156.064v438.4c0 48.56-22.896 95.072-61.216 124.4l-357.504 273.472c-27.056 20.72-59.328 31.664-93.28 31.664v0z" />
<glyph unicode="&#xe906;" glyph-name="light" d="M607.28 103.648c19.44 0 35.248 15.856 35.248 35.344s-15.808 35.344-35.248 35.344h-190.56c-19.44 0-35.264-15.856-35.264-35.344s15.824-35.344 35.264-35.344h190.56zM413.456 138.992c0 1.84 1.456 3.344 3.264 3.344h190.56c1.792 0 3.248-1.504 3.248-3.344s-1.456-3.344-3.248-3.344h-190.56c-1.792 0-3.264 1.488-3.264 3.344zM622.336 90.496h-220.672c-19.44 0-35.264-15.84-35.264-35.344 0-19.488 15.808-35.344 35.264-35.344h220.656c19.44 0 35.264 15.856 35.264 35.344 0.016 19.504-15.824 35.344-35.248 35.344zM622.336 51.808h-220.672c-1.808 0-3.264 1.504-3.264 3.344 0 1.856 1.456 3.344 3.264 3.344h220.656c1.792 0 3.264-1.488 3.264-3.344 0.016-1.84-1.456-3.344-3.248-3.344zM579.472 6.688h-134.928c-19.44 0-35.264-15.856-35.264-35.344s15.808-35.344 35.264-35.344h134.928c19.44 0 35.248 15.856 35.248 35.344s-15.808 35.344-35.248 35.344zM579.472-32h-134.928c-1.808 0-3.264 1.504-3.264 3.344s1.456 3.344 3.264 3.344h134.928c1.792 0 3.248-1.504 3.248-3.344s-1.456-3.344-3.248-3.344zM512 960c-171.84 0-311.648-140.768-311.648-313.808 0-59.392 19.952-118.032 60.96-179.12 0.8-1.808 1.792-3.552 2.976-5.216 5.504-7.808 10.976-15.312 16.368-22.736 15.12-20.768 29.408-40.384 43.104-64.528 34.128-60.352 32.768-118.624 32.256-140.56-0.064-3.024-0.112-5.44-0.096-7.168v-2.368c0-17.664 14.336-32 32-32h248.368c17.664 0 32 14.336 32 32v2.8c0 2-0.064 4.576-0.16 7.664-0.72 23.728-2.368 79.328 31.744 139.664 13.664 24.112 27.968 43.728 43.088 64.512 5.408 7.424 10.864 14.912 16.352 22.72 0.72 1.008 1.376 2.064 1.968 3.152 41.952 61.84 62.336 121.2 62.336 181.392 0.032 172.912-139.776 313.6-311.616 313.6zM732.992 480.304h0.192c-21.152-29.984-41.568-55.36-61.168-89.952-42.72-75.552-35.728-145.296-35.728-163.088v-2.8h-248.384v2.8c-0.192 14.592 6.416 87.552-36.32 163.088-19.616 34.576-40 59.968-61.168 89.952h0.592c-33.008 47.968-58.656 103.92-58.656 165.888 0 155.696 128.368 281.808 279.648 281.808s279.648-126.112 279.648-281.616c0-62.16-25.632-118.112-58.656-166.080z" />
<glyph unicode="&#xe907;" glyph-name="lock" d="M1023.952 832c0.064 34.192-13.232 66.384-37.424 90.576-24.112 24.096-56.192 37.376-90.336 37.376l-768.176 0.048c-70.576 0-128-57.424-128.016-128l0.048-768c0-34.128 13.312-66.24 37.456-90.416 24.208-24.208 56.352-37.536 90.512-37.536l767.968-0.048c70.608 0.064 128.016 57.504 128.016 128.016l-0.048 767.984zM895.984-32l-767.968 0.048c-26.48 0-50.48 10.768-67.872 28.144-17.328 17.328-28.096 41.344-28.096 67.808l-0.048 767.984c0 53.040 42.976 96.016 96.016 96.016l767.968-0.048c0.064 0 0.128 0 0.208 0 26.432 0 50.416-10.704 67.712-28 17.376-17.392 28.096-41.44 28.048-67.968l0.048-767.968c0-53.040-43.008-95.968-96.016-96.016zM512 764.336c-105.936 0-192.112-86.176-192.112-192.112 0-64.624 32.208-124.112 85.232-159.6v-168.288c0-62.144 47.952-112.688 106.88-112.688s106.896 50.544 106.896 112.688v168.304c53.008 35.472 85.232 94.976 85.232 159.6 0 105.92-86.192 192.096-192.128 192.096zM586.896 430.736v-186.4c0-44.384-33.696-80.688-74.896-80.688s-74.88 36.304-74.88 80.688v186.4c-50.672 26.88-85.232 80.128-85.232 141.488 0 88.432 71.68 160.112 160.112 160.112s160.128-71.68 160.128-160.112c0-61.36-34.56-114.592-85.232-141.488z" />
<glyph unicode="&#xe908;" glyph-name="menu-account" d="M508.544 366.672c117.312 0 228.192 158.176 228.192 325.456 0 221.408-124.096 267.872-228.192 267.872s-228.208-46.464-228.208-267.872c0-167.28 110.912-325.456 228.208-325.456zM508.544 928c139.328 0 196.192-89.696 196.192-235.872s-96.528-293.456-196.192-293.456c-99.664 0-196.192 147.28-196.192 293.456s56.864 235.872 196.192 235.872zM775.312 409.76c-8.576 2.912-17.552 4.368-26.64 4.368-22.048 0-43.792-8.912-59.664-24.464-42.704-41.872-109.6-86.944-155.504-86.944h-43.024c-45.92 0-112.784 45.056-155.504 86.944-15.872 15.568-37.616 24.464-59.664 24.464-9.088 0-18.048-1.472-26.64-4.368-157.92-53.6-236.896-176.112-248.544-385.568-1.264-22.736 6.768-44.48 22.624-61.232 16.208-17.136 39.12-26.96 62.896-26.96h852.72c23.76 0 46.688 9.824 62.896 26.96 15.84 16.752 23.888 38.496 22.624 61.232-11.664 209.456-90.656 331.968-248.576 385.568zM938.352-32h-852.704c-30.464 0-55.216 24.784-53.568 54.416 12.080 217.296 98.512 313.472 226.896 357.040 5.36 1.824 10.88 2.688 16.352 2.688 13.744 0 27.216-5.488 37.248-15.312 46.064-45.152 120.4-96.096 177.904-96.096h43.024c57.52 0 131.84 50.944 177.904 96.096 10.032 9.824 23.504 15.312 37.248 15.312 5.472 0 11.008-0.864 16.352-2.688 128.368-43.568 214.816-139.728 226.896-357.024 1.664-29.648-23.072-54.432-53.552-54.432z" />
<glyph unicode="&#xe909;" glyph-name="menu-alert" d="M968.64 252.064c-81.168 57.664-93.216 118.592-131.12 367.408-20.768 136.288-104.080 234.896-224.768 268.048-9.648 37.328-40.592 66.416-79.424 71.584-4.48 0.592-9.040 0.896-13.536 0.896-45.584 0-83.856-30.72-93.648-71.776-129.984-30.256-210.112-122.688-232.368-268.752-37.376-245.248-54.512-308.56-137.36-367.408-52.144-37.024-56.336-72.928-56.4-116-0.096-9.216-0.24-21.664 9.936-31.92 6-6.080 14.368-9.584 22.912-9.584h957.264c8.512 0 16.88 3.504 22.896 9.552 9.664 9.712 11.024 24.288 10.992 32.096-0.080 43.344-4.192 79.488-55.376 115.856zM990.128 126.56h-957.264c-1.040 0-0.848 8.48-0.848 9.456 0.048 38.080 3.104 61.664 42.928 89.952 93.36 66.336 112.176 137.392 150.448 388.672 22.144 145.28 102.176 225.52 230.32 246.848v6.032c0 33.408 28.672 60.48 64.064 60.48 3.056 0 6.176-0.208 9.328-0.624 32.464-4.32 54.752-33.568 54.752-64.512v-1.376c106.784-21.328 199.888-101.568 222.016-246.848 38.304-251.28 50.88-322.336 144.24-388.672 39.824-28.288 41.84-51.872 41.888-89.952 0-0.976-0.848-9.456-1.872-9.456zM598.672 69.84l-128.4 0.016c-57.936 0-57.936 0-67.264-9.072-6.352-6.192-9.872-14.752-9.664-23.648 1.296-59.536 50.096-101.136 118.656-101.136s117.36 41.6 118.672 101.152c0.192 8.592-3.104 16.928-9.12 23.072s-14.272 9.616-22.88 9.616zM512-32c-47.264 0-85.696 25.456-86.672 69.84 0 0 19.264 0.016 44.944 0.016 51.36 0 128.4-0.016 128.4-0.016-0.976-44.384-39.408-69.84-86.672-69.84z" />
<glyph unicode="&#xe90a;" glyph-name="menu-dashboard" d="M635.808 415.040c-13.024 13.040-30.352 20.224-48.816 20.224l-149.92 0.032c-38.112 0-69.12-31.024-69.12-69.168l0.016-297.312c0-18.432 7.184-35.792 20.208-48.864 13.072-13.088 30.432-20.304 48.896-20.304l149.824-0.016c38.144 0.032 69.12 31.056 69.12 69.168l-0.016 297.312c0.048 18.464-7.12 35.856-20.192 48.928zM586.928 31.648l-149.84 0.016c-10.24 0-19.52 4.176-26.24 10.912-6.688 6.704-10.864 16-10.864 26.256l-0.016 297.312c0 20.528 16.624 37.168 37.12 37.168l149.84-0.032c0.016 0 0.048 0 0.080 0 10.224 0 19.488-4.144 26.176-10.832 6.72-6.736 10.864-16.048 10.848-26.32l0.016-297.312c-0.016-20.528-16.64-37.152-37.12-37.168zM962.784 654.88l-357.504 273.456c-27.072 20.72-59.328 31.664-93.28 31.664s-66.208-10.944-93.28-31.664l-357.504-273.456c-38.336-29.328-61.216-75.856-61.216-124.416v-438.4c0-86.064 69.312-156.064 154.496-156.064h715.008c85.184 0 154.496 70 154.496 156.064v438.4c0 48.56-22.896 95.088-61.216 124.416zM992 92.064c0-68.512-54.848-124.064-122.496-124.064h-715.008c-67.648 0-122.496 55.552-122.496 124.064v438.4c0 38.896 18.016 75.536 48.672 98.992l357.488 273.488c21.84 16.704 47.84 25.056 73.84 25.056s51.984-8.352 73.824-25.056l357.52-273.488c30.64-23.456 48.656-60.096 48.656-98.992v-438.4z" />
<glyph unicode="&#xe90b;" glyph-name="menu-room" d="M945.44 960c-5.728 0-11.504-0.624-17.136-1.856l-299.76-65.648c-21.456-4.704-38.896-17.632-49.712-34.896-14.336 16.784-35.392 27.648-59.136 27.648h-441.568c-43.088 0-78.128-35.040-78.128-78.128v-718.256c0-43.072 35.040-78.128 78.128-78.128h441.568c23.744 0 44.784 10.88 59.136 27.648 10.832-17.264 28.272-30.192 49.712-34.896l299.744-65.648c5.648-1.216 11.408-1.84 17.152-1.84 43.328 0 78.56 34.832 78.56 77.648v868.704c0 42.816-35.232 77.648-78.56 77.648zM615.376 692.32c18.128 0 32.8-14.688 32.8-32.816 0-18.112-14.672-32.8-32.8-32.8h-59.568c-18.112 0-32.8 14.688-32.8 32.8 0 18.128 14.688 32.816 32.8 32.816h59.568zM565.824 88.88c0-25.472-20.656-46.128-46.128-46.128h-441.568c-25.472 0-46.128 20.656-46.128 46.128v718.24c0 25.472 20.656 46.128 46.128 46.128h441.568c25.472 0 46.128-20.656 46.128-46.128v-82.816h-10.016c-35.728 0-64.8-29.072-64.8-64.816 0-35.712 29.072-64.8 64.8-64.8h10.016v-286.368h-10.016c-35.728 0-64.8-29.072-64.8-64.816 0-35.712 29.072-64.8 64.8-64.8h10.016v-89.824zM555.808 210.704c-18.112 0-32.8 14.688-32.8 32.8 0 18.128 14.688 32.816 32.8 32.816h59.568c18.128 0 32.8-14.688 32.8-32.816 0-18.112-14.672-32.8-32.8-32.8h-59.568zM992 13.648c0-25.76-21.504-45.648-46.56-45.648-3.376 0-6.832 0.352-10.304 1.12l-299.744 65.648c-21.312 4.656-36.464 23.152-36.464 44.512v99.424h16.448c35.728 0 64.8 29.072 64.8 64.8s-29.056 64.816-64.8 64.816h-16.448v286.384h16.448c35.728 0 64.8 29.072 64.8 64.8s-29.056 64.816-64.8 64.816h-16.448v92.4c0 21.36 15.152 39.856 36.464 44.528l299.744 65.632c3.472 0.768 6.928 1.12 10.304 1.12 25.056 0 46.56-19.888 46.56-45.648v-868.704z" />
<glyph unicode="&#xe90c;" glyph-name="menu-scene" d="M407.872 474.176c43.584 0 78.864 35.36 78.864 78.88 0 43.632-35.296 78.864-78.864 78.864-43.52 0-78.864-35.232-78.864-78.864 0-43.52 35.344-78.88 78.864-78.88zM407.872 599.904c25.84 0 46.864-21.008 46.864-46.864s-21.024-46.88-46.864-46.88c-25.84 0-46.864 21.024-46.864 46.88s21.024 46.864 46.864 46.864zM662.416 472.16c-8 11.568-20.528 17.328-33.056 17.328-12.656 0-25.312-5.872-33.28-17.632l-113.6-167.28c-7.984-11.744-20.624-17.632-33.28-17.632-12.528 0-25.056 5.76-33.056 17.328l-53.968 77.952c-8 11.552-20.544 17.328-33.072 17.328-12.656 0-25.296-5.888-33.264-17.632l-161.488-237.712c-18.144-26.72 0.992-62.816 33.264-62.816 0.016 0 0.048 0 0.064 0l163.344 0.256-0.224-0.368 524.96 0.768c32.4 0.048 51.456 36.448 32.992 63.104l-226.336 327.008zM863.008 118.432c-1.040-2-3.168-4.4-7.264-4.4l-519.904-0.768c-1.584 0.256-3.184 0.368-4.816 0.368-0.016 0-0.032 0-0.048 0l-163.344-0.256c-4.112 0-6.224 2.368-7.28 4.352-1.056 2-1.824 5.072 0.464 8.464l161.472 237.728c2.016 2.992 4.816 3.616 6.8 3.616 1.968 0 4.72-0.624 6.752-3.552l53.968-77.952c13.488-19.488 35.68-31.104 59.376-31.104 23.952 0 46.288 11.824 59.744 31.648l113.6 167.296c2.032 2.976 4.816 3.6 6.816 3.6 1.952 0 4.72-0.608 6.752-3.536l226.352-327.024c2.368-3.36 1.6-6.464 0.56-8.48zM1023.952 831.984c0.064 34.208-13.232 66.384-37.424 90.576-24.112 24.112-56.192 37.392-90.336 37.392l-768.176 0.048c-70.576 0-128-57.424-128.016-128l0.048-767.984c0-34.144 13.312-66.256 37.456-90.416 24.208-24.224 56.352-37.552 90.512-37.552l767.968-0.048c70.608 0.064 128.016 57.504 128.016 128.032l-0.048 767.952zM895.984-32l-767.968 0.048c-26.48 0-50.48 10.768-67.872 28.16-17.328 17.344-28.096 41.344-28.096 67.808l-0.048 767.968c0 53.040 42.976 96.016 96.016 96.016l767.968-0.048c0.064 0 0.128 0 0.208 0 26.432 0 50.416-10.72 67.712-28.016 17.376-17.376 28.096-41.44 28.048-67.952l0.048-767.952c0-53.056-43.008-95.984-96.016-96.032z" />
<glyph unicode="&#xe90d;" glyph-name="menu-setting" d="M995.2 521.776l-109.696 14.944c-9.552 40.464-25.44 78.384-46.656 112.736l67.008 88.112c9.664 12.736 8.368 32.416-2.992 43.728l-57.52 57.536c-5.76 5.696-13.552 8.864-21.6 9.328-0.896 0.080-1.76 0.112-2.656 0.112-7.12 0-14.208-2.128-19.888-6.384l-87.968-66.88c-34.224 21.168-72.080 36.96-112.368 46.448l-14.976 109.744c-2.144 15.824-16.992 28.8-32.944 28.8h-81.824c-15.936 0-30.816-12.912-32.944-28.8l-14.992-109.744c-40.352-9.456-78.208-25.28-112.48-46.448l-59.76 45.376v-0.272l-28.576 21.76c-5.664 4.336-12.736 6.432-19.856 6.432-8.768 0-17.568-3.216-23.808-9.488l-57.584-57.52c-11.248-11.312-12.592-30.944-2.944-43.728l66.96-88.112c-21.168-34.336-37.040-72.272-46.656-112.736l-109.664-14.944c-15.808-2.176-28.816-17.056-28.816-32.944v-81.504c0-15.936 13.008-30.768 28.848-33.056l109.664-14.88c9.6-40.368 25.488-78.336 46.656-112.688l-66.96-88.16c-9.648-12.688-8.32-32.416 2.992-43.728l57.52-57.6c5.696-5.696 13.6-8.912 21.6-9.328 0.928-0.080 1.84-0.112 2.768-0.112 7.072 0 14.080 2.176 19.792 6.56l87.904 66.832c34.224-21.12 72.176-36.976 112.432-46.56l14.992-109.696c2.096-15.792 16.96-28.912 32.896-28.912h81.824c15.952 0 30.816 13.056 32.96 28.912l14.992 109.696c40.304 9.552 78.208 25.44 112.48 46.496l59.696-45.44v0.336l28.576-21.664c5.712-4.368 12.864-6.512 20.016-6.512 8.736 0 17.488 3.184 23.696 9.392l57.584 57.552c11.296 11.36 12.576 31.088 2.928 43.776l-66.96 88.16c21.152 34.336 37.040 72.32 46.592 112.688l109.696 14.88c15.84 2.192 28.8 17.12 28.8 33.008v81.488c0.016 15.952-12.944 30.832-28.784 33.008zM990.912 405.984l-109.712-14.896c-13.104-1.76-23.776-11.456-26.832-24.336-8.656-36.576-23.008-71.312-42.704-103.248-6.944-11.264-6.24-25.632 1.76-36.16l66.784-87.856c0.24-0.56 0.144-1.872 0.112-2.080l-57.296-57.312c-0.16-0.096-0.672-0.272-1.36-0.272-0.336 0-0.608 0.048-0.688 0.048-0.016 0-0.032 0-0.016-0.016l-28.56 21.648c-1.056 0.8-2.16 1.52-3.28 2.176l-56.368 42.912c-5.696 4.336-12.528 6.528-19.376 6.528-5.792 0-11.616-1.568-16.768-4.736-31.984-19.664-66.672-34-103.088-42.624-12.88-3.040-22.544-13.696-24.336-26.816l-14.912-109.44c-0.224-0.528-1.168-1.376-1.728-1.504l-80.96-0.048c-0.576 0.176-1.536 1.024-1.68 1.28l-14.976 109.696c-1.792 13.088-11.44 23.728-24.288 26.8-36.672 8.752-71.344 23.088-103.056 42.672-5.168 3.184-10.992 4.768-16.8 4.768-6.848 0-13.664-2.208-19.36-6.528l-88.544-66.864c-0.288 0.032-0.56 0.048-0.848 0.064s-0.544 0.080-0.64 0.080c-0.064 0-0.080-0.032 0-0.096l-57.312 57.344c-0.304 0.512-0.384 1.792-0.352 2.016l66.96 88.16c8 10.528 8.688 24.896 1.76 36.16-19.664 31.904-34.048 66.656-42.752 103.296-3.056 12.864-13.712 22.528-26.832 24.304l-109.152 14.8c-0.64 0.192-1.584 1.216-1.712 1.424l-0.032 81.072c0.16 0.56 1.024 1.536 1.2 1.664l109.664 14.928c13.104 1.792 23.76 11.472 26.816 24.336 8.672 36.624 23.056 71.392 42.752 103.344 6.944 11.248 6.24 25.632-1.76 36.16l-66.752 87.776c-0.24 0.528-0.16 1.856-0.128 2.048l57.376 57.392c0.144 0.080 0.688 0.272 1.376 0.272 0.208 0 0.384-0.016 0.48-0.016 0.080 0 0.112 0.016 0.064 0.048l28.496-21.68c0.992-0.768 2.016-1.456 3.072-2.080l56.72-43.056c5.696-4.336 12.512-6.512 19.36-6.512 5.808 0 11.648 1.584 16.816 4.768 31.872 19.68 66.512 34 102.96 42.512 12.912 3.024 22.624 13.696 24.416 26.848l14.912 109.488c0.208 0.496 1.104 1.28 1.728 1.392h81.168c0.528-0.208 1.36-0.928 1.504-1.12l14.976-109.744c1.792-13.12 11.488-23.792 24.368-26.832 36.592-8.608 71.2-22.928 102.88-42.512 5.184-3.2 11.008-4.784 16.848-4.784 6.848 0 13.664 2.192 19.36 6.528l87.568 66.592c0.080 0.032 0.336 0.112 1.12 0.112 0.176 0 0.352 0 0.56-0.016 0.416-0.032 0.736-0.096 0.864-0.096 0.064 0 0.064 0.016 0 0.080l57.344-57.312c0.304-0.496 0.352-1.744 0.336-1.952l-67.008-88.112c-8.016-10.528-8.704-24.928-1.744-36.192 19.712-31.92 34.096-66.672 42.72-103.264 3.040-12.896 13.712-22.576 26.832-24.368l109.344-14.848c0.528-0.224 1.376-1.168 1.488-1.392l0.032-81.088c-0.208-0.624-1.072-1.6-1.184-1.728zM532.32 647.536c-6.624 0.528-13.28 0.864-20.096 0.864-110.624 0-200.336-89.6-200.336-200.352 0-103.68 78.848-189.056 179.824-199.408 6.608-0.64 13.376-1.008 20.16-1.008 110.56 0 200.336 89.744 200.336 200.416-0.016 103.76-78.864 189.088-179.888 199.488zM511.84 279.616c-5.392 0-11.136 0.304-16.896 0.848-86.128 8.832-151.088 80.864-151.088 167.584 0 92.832 75.52 168.352 168.336 168.352 5.552 0 11.28-0.256 16.816-0.688 86.176-8.88 151.152-80.96 151.152-167.664 0.032-92.896-75.504-168.432-168.32-168.432z" />
<glyph unicode="&#xe90e;" glyph-name="menu-thing" d="M512 585.358c-74.268 0-134.684-60.473-134.684-134.827s60.416-134.827 134.684-134.827 134.656 60.473 134.656 134.827-60.388 134.827-134.656 134.827zM512 347.705c-56.718 0-102.684 46.023-102.684 102.827s45.966 102.827 102.684 102.827 102.656-46.052 102.656-102.827-45.938-102.827-102.656-102.827zM874.041 813.084c-6.258 6.258-16.384 6.258-22.642 0s-6.258-16.384-0.028-22.613c90.681-90.795 140.601-211.541 140.601-339.968 0-126.805-48.953-246.5-137.785-336.981-6.172-6.315-6.087-16.412 0.228-22.642 3.1-3.044 7.168-4.551 11.236-4.551 4.124 0 8.277 1.593 11.406 4.779 94.777 96.512 146.944 224.171 146.944 359.396 0 136.988-53.248 265.756-149.959 362.581zM172.601 813.084c-6.258 6.229-16.412 6.258-22.642 0-96.711-96.825-149.959-225.593-149.959-362.581 0-135.225 52.167-262.912 146.944-359.396 3.129-3.186 7.282-4.779 11.435-4.779 4.039 0 8.107 1.508 11.207 4.551 6.315 6.229 6.4 16.327 0.228 22.642-88.86 90.51-137.785 210.204-137.785 336.981 0 128.427 49.92 249.173 140.601 339.968 6.229 6.258 6.229 16.384-0.028 22.613zM311.95 673.508c-6.201 6.258-16.356 6.258-22.613-0.028-59.449-59.563-92.217-138.752-92.217-222.948 0-82.404 31.687-160.398 89.202-219.676 3.129-3.214 7.31-4.836 11.463-4.836 4.039 0 8.050 1.508 11.15 4.523 6.372 6.144 6.514 16.27 0.37 22.642-51.712 53.22-80.185 123.335-80.185 197.348 0 75.691 29.44 146.83 82.859 200.363 6.258 6.229 6.258 16.356-0.028 22.613zM712.050 673.508c-6.286-6.258-6.286-16.384-0.057-22.613 53.447-53.532 82.887-124.672 82.887-200.363 0-74.012-28.501-144.128-80.185-197.348-6.144-6.372-6.002-16.498 0.37-22.642 3.1-3.015 7.111-4.523 11.15-4.523 4.153 0 8.334 1.621 11.463 4.836 57.515 59.278 89.23 137.273 89.23 219.676 0 84.196-32.768 163.413-92.217 222.948-6.286 6.258-16.441 6.229-22.642 0.028z" />
<glyph unicode="&#xe90f;" glyph-name="menu-timeline" d="M512-64c-91.040 0-180.448 24.208-258.544 69.984-7.632 4.464-10.192 14.272-5.712 21.904 4.496 7.616 14.288 10.16 21.92 5.696 73.184-42.896 156.992-65.584 242.336-65.584 264.656 0 479.968 215.328 479.968 480s-215.312 480-479.968 480c-128.528 0-249.264-50.144-339.984-141.184-6.224-6.272-16.384-6.288-22.656-0.048s-6.304 16.352-0.064 22.624c96.8 97.12 225.6 150.608 362.704 150.608 282.32 0 512-229.68 512-512s-229.68-512-512-512zM741.952 365.872h-214.608c-30.608 0-55.52 24.912-55.52 55.52v349.52c0 8.832 7.168 16 16.016 16s16.016-7.168 16.016-16v-349.536c0-12.976 10.544-23.52 23.488-23.52h214.608c8.848 0 16.016-7.168 16.016-16s-7.168-15.984-16.016-15.984zM161.296 81.28c-4.096 0-8.192 1.568-11.328 4.688-31.392 31.376-58.736 67.072-81.312 106.064-4.432 7.648-1.792 17.44 5.872 21.856 7.616 4.448 17.44 1.808 21.872-5.84 21.168-36.592 46.816-70.048 76.224-99.456 6.256-6.256 6.256-16.384 0-22.64-3.136-3.104-7.248-4.672-11.328-4.672zM32.912 560.384c-1.376 0-2.768 0.176-4.144 0.544-8.544 2.288-13.632 11.040-11.344 19.584 11.504 43.056 28.736 84.608 51.232 123.472 4.416 7.648 14.224 10.288 21.888 5.84 7.664-4.416 10.288-14.208 5.856-21.856-21.072-36.432-37.232-75.36-48.032-115.712-1.92-7.152-8.384-11.872-15.456-11.872zM32.88 303.616c-7.072 0-13.552 4.72-15.456 11.888-11.552 43.232-17.424 87.824-17.424 132.496 0 8.832 7.168 16 16.016 16s16.016-7.168 16.016-16c0-41.904 5.488-83.712 16.336-124.272 2.288-8.528-2.784-17.296-11.328-19.584-1.392-0.352-2.784-0.528-4.16-0.528zM267.872 756.816c-0.096 0-0.208 0-0.336 0l-102.224 2.080c-12.496 0.272-24.128 5.36-32.784 14.384-8.656 9.008-13.28 20.848-13.008 33.328l2.080 102.224c0.192 8.832 7.264 15.664 16.336 15.664 8.832-0.176 15.856-7.488 15.68-16.336l-2.080-102.224c-0.096-3.952 1.376-7.68 4.096-10.528s6.4-4.448 10.32-4.528l102.24-2.080c8.832-0.192 15.856-7.488 15.68-16.32-0.16-8.72-7.296-15.664-16-15.664z" />
<glyph unicode="&#xe910;" glyph-name="motion" horiz-adv-x="1016" d="M804.064 955.344c-6.24 6.224-16.384 6.192-22.624-0.048-6.24-6.272-6.208-16.4 0.064-22.64 130.656-130.032 202.624-302.928 202.624-486.832 0-181.6-70.512-352.976-198.544-482.592-6.224-6.288-6.16-16.416 0.128-22.624 3.12-3.056 7.184-4.608 11.248-4.608 4.128 0 8.256 1.584 11.376 4.752 134 135.632 207.792 315.008 207.792 505.072 0 192.496-75.312 373.44-212.064 509.52zM582.48 757.296c-6.24-6.272-6.208-16.4 0.064-22.64 77.52-77.152 120.224-179.728 120.224-288.832 0-106.72-41.312-207.776-116.32-284.544-6.192-6.32-6.064-16.448 0.256-22.624 3.12-3.040 7.152-4.56 11.184-4.56 4.16 0 8.32 1.616 11.44 4.816 80.896 82.784 125.44 191.776 125.44 306.912 0 117.664-46.048 228.304-129.664 311.52-6.224 6.224-16.384 6.208-22.624-0.048zM508.544 458.72h-57.28l-45.424 37.488c22.352 15.696 37.040 41.632 37.040 70.976 0 47.808-38.896 86.704-86.704 86.704s-86.704-38.896-86.704-86.704c0-6.256 0.704-12.336 1.968-18.24l-81.392 7.008c-15.696 1.664-31.392-4.8-41.696-17.472l-66.896-82.176c-16.704-20.528-13.6-50.816 6.928-67.52 8.528-6.96 19.28-10.784 30.304-10.784 14.496 0 28.080 6.448 37.232 17.696l50.848 62.48 22.944-1.984-36.752-70.24c-8.8-6.624-14.992-15.984-17.664-26.832l-23.488-95.344h-103.808c-26.464 0-48-21.536-48-48s21.536-48 48-48h141.408c22.144 0 41.296 15.008 46.608 36.512l18 73.024 105.968-183.072c8.56-14.768 24.48-23.952 41.584-23.952 8.4 0 16.704 2.24 24.016 6.464 11.088 6.416 19.024 16.784 22.336 29.168s1.584 25.328-4.848 36.416l-113.632 196.336 32.864 68.992 41.184-33.984c8.592-7.072 19.44-10.96 30.528-10.96h74.528c26.464 0 48 21.536 48 48s-21.536 48-48 48zM356.192 621.888c30.16 0 54.704-24.544 54.704-54.704s-24.544-54.704-54.704-54.704-54.704 24.544-54.704 54.704 24.544 54.704 54.704 54.704zM508.544 394.72h-74.528c-3.696 0-7.312 1.312-10.176 3.664l-56.992 47.008c-3.808 3.12-8.816 4.352-13.664 3.28-4.816-1.056-8.864-4.288-10.992-8.736l-45.296-95.104c-2.272-4.768-2.032-10.336 0.608-14.896l117.84-203.584c2.144-3.696 2.72-8.016 1.616-12.144-1.088-4.128-3.728-7.584-7.44-9.712-7.44-4.304-17.632-1.488-21.872 5.824l-125.856 217.408c-2.896 4.992-8.192 7.984-13.84 7.984-0.752 0-1.504-0.048-2.272-0.16-6.448-0.912-11.696-5.664-13.264-12l-27.488-111.568c-1.76-7.168-8.176-12.176-15.552-12.176h-141.376c-8.832 0-16 7.184-16 16s7.168 16 16 16h116.336c7.36 0 13.776 5.024 15.536 12.176l26.48 107.52c1.024 4.144 3.6 7.648 7.216 9.84 2.496 1.504 4.528 3.68 5.872 6.256l49.744 95.072c2.48 4.752 2.432 10.416-0.144 15.104s-7.328 7.792-12.656 8.256l-55.328 4.752c-5.376 0.528-10.432-1.728-13.776-5.84l-56.192-69.040c-3.040-3.76-7.584-5.904-12.416-5.904-2.592 0-6.432 0.624-10.080 3.6-6.864 5.584-7.888 15.664-2.336 22.512l66.896 82.176c3.456 4.224 8.544 6.352 13.776 5.84l94.624-8.144c23.408-26.464 57.312-40.4 93.808-36.128l59.936-49.456c2.88-2.352 6.464-3.664 10.192-3.664h63.024c8.832 0 16-7.184 16-16s-7.136-16.016-15.968-16.016z" />
<glyph unicode="&#xe911;" glyph-name="security" d="M989.104 765.904c-12.752 60.32-78.336 66.304-154.272 73.2-92.368 8.416-207.344 18.88-299.472 111.472-6 6.032-14.16 9.424-22.688 9.424h-0.848c-8.512 0-16.672-3.392-22.688-9.424-92.128-92.592-207.008-103.056-299.328-111.472-75.888-6.912-141.44-12.88-154.16-73.2-29.616-140.24 122.8-636.464 408.8-810.848 20.432-12.464 43.92-19.056 67.92-19.056s47.488 6.592 67.936 19.056c285.984 174.384 438.4 670.608 408.8 810.848zM563.632-17.632c-15.712-9.584-33.488-14.368-51.264-14.368s-35.552 4.784-51.28 14.368c-277.856 169.456-420.512 652.032-394.144 776.928 18.544 87.792 270.752-6.304 444.88 168.704h0.848c174.128-175.008 426.56-80.912 445.104-168.704 26.368-124.896-116.272-607.472-394.144-776.928z" />
<glyph unicode="&#xe912;" glyph-name="switch-lock" d="M512 960c-282.756 0-512-229.231-512-511.986 0-282.783 229.244-512.014 512-512.014 282.769 0 512 229.231 512 512.014 0 282.756-229.231 511.986-512 511.986zM583.842 431.456v-178.795c0-42.579-32.326-77.412-71.842-77.412s-71.842 34.834-71.842 77.412v178.795c-48.606 25.772-81.749 76.858-81.749 135.718 0 84.825 68.766 153.592 153.592 153.592s153.592-68.766 153.592-153.592c0-58.873-33.129-109.946-81.749-135.718z" />
<glyph unicode="&#xe913;" glyph-name="thermostat" d="M560.784 666.256h-92.656c-19.44 0-35.264-15.856-35.264-35.344s15.808-35.344 35.264-35.344h92.656c19.44 0 35.264 15.856 35.264 35.344s-15.824 35.344-35.264 35.344zM560.784 627.568h-92.656c-1.808 0-3.264 1.504-3.264 3.344 0 1.856 1.456 3.344 3.264 3.344h92.656c1.792 0 3.264-1.488 3.264-3.344s-1.472-3.344-3.264-3.344zM491.056 518.432h-22.928c-19.44 0-35.264-15.856-35.264-35.344s15.808-35.344 35.264-35.344h22.928c19.44 0 35.264 15.856 35.264 35.344s-15.824 35.344-35.264 35.344zM491.056 479.744h-22.928c-1.808 0-3.264 1.488-3.264 3.344 0 1.84 1.456 3.344 3.264 3.344h22.928c1.792 0 3.264-1.504 3.264-3.344s-1.472-3.344-3.264-3.344zM468.128 743.376h22.928c19.44 0 35.264 15.856 35.264 35.344s-15.824 35.344-35.264 35.344h-22.928c-19.44 0-35.264-15.856-35.264-35.344 0-19.472 15.808-35.344 35.264-35.344zM468.128 782.064h22.928c1.792 0 3.264-1.488 3.264-3.344 0-1.84-1.456-3.344-3.264-3.344h-22.928c-1.808 0-3.264 1.504-3.264 3.344 0 1.856 1.456 3.344 3.264 3.344zM644.88 367.328v458.848c0 73.792-58.512 133.824-130.416 133.824-71.92 0-130.432-60.032-130.432-133.824v-458.832c-69.584-42.848-112.032-116.768-112.032-197.28 0-129.072 108.768-234.064 242.448-234.064s242.448 104.992 242.448 234.064c0.016 80.512-42.432 154.432-112.016 197.264zM514.448-32c-116.224 0-210.448 90.464-210.448 202.064 0 77.44 45.408 144.64 112.016 178.56v477.552c0 56 44.304 101.824 98.448 101.824 54.128 0 98.416-45.824 98.416-101.824v-477.552c66.608-33.92 112.032-101.104 112.032-178.56 0-111.6-94.224-202.064-210.464-202.064z" />
</font>
</defs>
</svg>
